<?xml version="1.0" encoding="iso-8859-1"?>
<!-- Generator: Adobe Illustrator 22.1.0, SVG Export Plug-In . SVG Version: 6.00 Build 0)  -->
<svg version="1.1" id="Layer_1" xmlns="http://www.w3.org/2000/svg" xmlns:xlink="http://www.w3.org/1999/xlink" x="0px" y="0px"
	 viewBox="0 0 25.377 23.688" style="enable-background:new 0 0 25.377 23.688;" xml:space="preserve">
<g id="sword-7">
	<polygon points="11.274,7.465 11.981,6.757 5.578,0.354 1.689,0 2.043,3.89 8.445,10.293 9.152,9.586 3.006,3.44 2.794,1.105 
		5.127,1.317 	"/>
	<path d="M23.256,15.203l-0.707-0.707l-1.414,1.414l-4.203-4.203l-0.708,0.707l4.204,4.203l-2.122,2.121l-4.203-4.203l-0.707,0.707
		l4.203,4.204l-1.414,1.414l0.707,0.707l2.121-2.122l4.243,4.243l2.121-2.121l-4.242-4.243L23.256,15.203z M23.963,21.567
		l-0.707,0.707l-3.536-3.536l0.708-0.707L23.963,21.567z"/>
	<path d="M23.334,3.89L23.688,0l-3.89,0.354L4.242,15.91l-1.414-1.414l-0.707,0.707l2.121,2.121L0,21.567l2.121,2.121l4.243-4.243
		l2.121,2.122l0.707-0.707l-1.414-1.414L23.334,3.89z M2.121,22.274l-0.707-0.707l3.535-3.536l0.708,0.707L2.121,22.274z
		 M4.949,16.617l15.301-15.3l2.333-0.212L22.371,3.44l-15.3,15.299L4.949,16.617z"/>
</g>
</svg>
